HIERARCHY
ROOT Hips
{
	OFFSET	0.00	0.00	0.00
	CHANNELS 6 Xposition Yposition Zposition Zrotation Xrotation Yrotation
	JOINT LeftUpLeg
	{
		OFFSET	 0.126116	-0.065224	 0.014019
		CHANNELS 3 Zrotation Xrotation Yrotation
		JOINT LeftLeg
		{
			OFFSET	 0.000000	 0.569914	 0.000000
			CHANNELS 3 Zrotation Xrotation Yrotation
			JOINT LeftFoot
			{
				OFFSET	 0.000000	 0.544423	 0.000000
				CHANNELS 3 Zrotation Xrotation Yrotation
				JOINT LeftToeBase
				{
					OFFSET	 0.000000	 0.207117	 0.000000
					CHANNELS 3 Zrotation Xrotation Yrotation
					End Site
					{
						OFFSET	 0.000000	 0.207117	 0.000000
					}
				}
			}
		}
	}
	JOINT RightUpLeg
	{
		OFFSET	-0.124023	-0.065224	 0.008373
		CHANNELS 3 Zrotation Xrotation Yrotation
		JOINT RightLeg
		{
			OFFSET	 0.000000	 0.570047	 0.000000
			CHANNELS 3 Zrotation Xrotation Yrotation
			JOINT RightFoot
			{
				OFFSET	 0.000000	 0.544354	 0.000000
				CHANNELS 3 Zrotation Xrotation Yrotation
				JOINT RightToeBase
				{
					OFFSET	 0.000000	 0.207540	 0.000000
					CHANNELS 3 Zrotation Xrotation Yrotation
					End Site
					{
						OFFSET	 0.000000	 0.207540	 0.000000
					}
				}
			}
		}
	}
	JOINT Spine
	{
		OFFSET	 0.000184	 0.117403	 0.007763
		CHANNELS 3 Zrotation Xrotation Yrotation
		JOINT Spine1
		{
			OFFSET	 0.000000	 0.137269	 0.000000
			CHANNELS 3 Zrotation Xrotation Yrotation
			JOINT Spine2
			{
				OFFSET	 0.000000	 0.156879	 0.000000
				CHANNELS 3 Zrotation Xrotation Yrotation
				JOINT LeftShoulder
				{
					OFFSET	 0.080501	 0.160143	 0.002496
					CHANNELS 3 Zrotation Xrotation Yrotation
					JOINT LeftArm
					{
						OFFSET	 0.000000	 0.164363	 0.000000
						CHANNELS 3 Zrotation Xrotation Yrotation
						JOINT LeftForeArm
						{
							OFFSET	 0.000000	 0.364576	 0.000000
							CHANNELS 3 Zrotation Xrotation Yrotation
							JOINT LeftHand
							{
								OFFSET	 0.000000	 0.360812	 0.000000
								CHANNELS 3 Zrotation Xrotation Yrotation
								JOINT LeftHandIndex1
								{
									OFFSET	 0.000000	 0.086006	 0.000000
									CHANNELS 3 Zrotation Xrotation Yrotation
									JOINT LeftHandIndex2
									{
										OFFSET	 0.000000	 0.047237	 0.000000
										CHANNELS 3 Zrotation Xrotation Yrotation
										JOINT LeftHandIndex3
										{
											OFFSET	-0.004284	 0.038165	 0.000551
											CHANNELS 3 Zrotation Xrotation Yrotation
											End Site
											{
												OFFSET	-0.004284	 0.038165	 0.000551
											}
										}
									}
								}
							}
						}
					}
				}
				JOINT Neck
				{
					OFFSET	 0.000000	 0.176489	 0.000000
					CHANNELS 3 Zrotation Xrotation Yrotation
					JOINT Head
					{
						OFFSET	 0.000000	 0.077941	 0.001747
						CHANNELS 3 Zrotation Xrotation Yrotation
						End Site
						{
							OFFSET	 0.000000	 0.077941	 0.001747
						}
					}
				}
				JOINT RightShoulder
				{
					OFFSET	-0.080363	 0.159706	-0.000306
					CHANNELS 3 Zrotation Xrotation Yrotation
					JOINT RightArm
					{
						OFFSET	 0.000000	 0.164196	 0.000000
						CHANNELS 3 Zrotation Xrotation Yrotation
						JOINT RightForeArm
						{
							OFFSET	 0.000000	 0.365611	 0.000000
							CHANNELS 3 Zrotation Xrotation Yrotation
							JOINT RightHand
							{
								OFFSET	 0.000000	 0.360648	 0.000000
								CHANNELS 3 Zrotation Xrotation Yrotation
								JOINT RightHandIndex1
								{
									OFFSET	 0.000000	 0.069977	 0.000000
									CHANNELS 3 Zrotation Xrotation Yrotation
									JOINT RightHandIndex2
									{
										OFFSET	 0.000000	 0.052305	 0.000000
										CHANNELS 3 Zrotation Xrotation Yrotation
										JOINT RightHandIndex3
										{
											OFFSET	 0.009002	 0.042196	 0.000782
											CHANNELS 3 Zrotation Xrotation Yrotation
											End Site
											{
												OFFSET	 0.009002	 0.042196	 0.000782
											}
										}
									}
								}
							}
						}
					}
				}
			}
		}
	}
}
MOTION
Frames:    7
Frame Time: 0.03333334
-0.043696	 1.257144	 0.001887	-1.358996	-5.679476	 141.106100	-162.080200	 14.419780	-36.241540	 9.444594	-31.648160	 4.595061	-18.003210	 69.592400	 8.796629	 1.130919	 26.266890	-2.647422	-171.504200	 23.492390	-23.825150	-2.936800	-34.068280	-6.060594	-28.210540	 70.469330	 34.758350	-1.278485	 28.233700	 2.706085	 10.421090	 3.113825	-13.680520	 6.734740	 13.038910	-5.046256	-0.709195	-14.640290	 9.273279	-100.062300	 4.952766	 93.278820	-9.571524	 50.687270	 31.921640	 36.475540	-1.762146	 0.496810	-7.761500	-40.316750	-20.115860	 8.127951	-14.211630	 1.862858	-5.878285	 18.939190	 2.096279	 5.359286	 4.991425	-0.157347	 2.817101	-6.602029	 3.274238	-1.918025	-9.624497	 21.277550	 112.007700	 11.216910	-92.437800	 22.709180	 37.494370	-9.950613	-54.607880	-1.837051	-0.889858	-45.345340	-38.766790	-26.214490	-5.688523	 15.380400	 1.150451	 17.778500	 51.101280	-14.608590	-8.386484	 35.455680	-2.047900
-0.064687	 1.248337	-0.013648	-2.169866	-5.818989	 135.017500	-161.577100	 13.975150	-42.615470	 10.815810	-35.178240	 8.372132	-10.005360	 73.520570	 0.879329	 1.125652	 26.195100	-2.645376	-170.536900	 25.289760	-28.514290	-3.176640	-36.182660	-7.932705	-31.508320	 70.598880	 39.600290	-1.286630	 28.340820	 2.709527	 10.697620	 3.289075	-15.039560	 6.827888	 13.363300	-5.699266	-0.815328	-14.739180	 10.495580	-97.565410	 3.413034	 93.090860	-16.777650	 47.122340	 32.197370	 35.980940	-1.741509	 0.481678	-14.516710	-37.480160	-27.456070	 8.132101	-14.466870	 2.039657	-5.877625	 19.021430	 2.105236	 5.365144	 5.129196	-0.154925	 2.783633	-6.330536	 3.840720	-2.179001	-9.758688	 24.606750	 107.369600	 10.226270	-87.463020	 26.655780	 35.648030	-0.222068	-70.523120	-2.124253	-1.443481	-33.715490	-48.972130	-6.997306	-6.046287	 16.456340	 1.241896	 18.770360	 53.548030	-15.930410	-8.338459	 37.451290	-2.206430
-0.094524	 1.229747	-0.039471	-1.953765	-5.639190	 131.710000	-161.203800	 14.955780	-45.558860	 13.514760	-41.276670	 11.854370	-0.993752	 78.848090	-7.555058	 1.124690	 26.181960	-2.645008	-169.981600	 26.934990	-31.121920	-3.748228	-40.788800	-8.144932	-32.475900	 73.489590	 42.293400	-1.308483	 28.627570	 2.718829	 11.261730	 3.561666	-17.506390	 7.775844	 13.417040	-7.524924	-1.178585	-14.413190	 11.178520	-95.084180	 2.640764	 92.955350	-30.935920	 43.517420	 41.800130	 36.911850	-1.779923	 0.510224	-9.733341	-29.021960	-23.803390	 7.985223	-14.197090	 2.064911	-5.877380	 19.051880	 2.108554	 5.367257	 5.178625	-0.154058	 3.000943	-5.796983	 4.328488	-3.270167	-9.964301	 27.150640	 98.521960	 5.297727	-76.374610	 22.804320	 24.519910	 9.891121	-95.985360	-2.240787	-2.429379	 12.879340	-59.561480	 38.461020	-6.055334	 16.560750	 1.251023	 18.812950	 53.645040	-15.986030	-8.337403	 37.491460	-2.209683
-0.118832	 1.223201	-0.068657	 0.668423	-6.155406	 137.507200	-161.684800	 17.520230	-39.712290	 15.625490	-45.333650	 11.192480	-8.845391	 82.094440	 1.764060	 1.141410	 26.432290	-2.672852	-172.701600	 25.757110	-24.079400	-3.769479	-40.949330	-7.420671	-30.488300	 75.233190	 41.281670	-1.345293	 29.107430	 2.734728	 11.718480	 2.452628	-19.492310	 7.627032	 12.321650	-8.030911	-1.021403	-13.064810	 10.103100	-92.346580	 1.509357	 92.773350	-44.064510	 44.472050	 52.159250	 41.138950	-1.949848	 0.647916	-5.059668	-26.550360	-21.488910	 7.959601	-14.194570	 2.068197	-5.877207	 19.072380	 2.110781	 5.369528	 5.231969	-0.153120	 4.407370	-5.060154	 4.342401	-4.726601	-9.199183	 27.622460	 89.001370	-5.030643	-63.909280	 6.005379	 13.288370	 24.766740	-102.933300	-2.195972	-2.698662	 68.018270	-55.352700	 84.828590	-5.963631	 16.345400	 1.230412	 18.833710	 53.692080	-16.013100	-8.338325	 37.456360	-2.206838
-0.129414	 1.247240	-0.088818	 5.896976	-4.639256	 158.422700	-166.416500	 20.866850	-17.325120	 14.647890	-43.526730	 5.242533	-33.379250	 77.344600	 26.622090	 1.331846	 28.969040	-2.766602	-178.380600	 15.273540	-0.512594	-2.741744	-32.266590	 4.850499	 2.915455	 73.734280	 1.406407	-1.462419	 30.605450	 2.787199	 6.790704	 0.545810	-9.349616	 3.509557	 9.560530	-3.826597	 0.378738	-10.251050	 3.960333	-92.581900	-0.300913	 92.632760	-21.642680	 47.247560	 42.670940	 54.317960	-2.406865	 1.151012	 3.726138	-31.646000	-11.152240	 7.799406	-12.661230	 1.790105	-5.871804	 19.826610	 2.193078	 5.390072	 5.716290	-0.144725	 6.890668	-6.073659	 1.857936	-0.704317	-5.765637	 17.214700	 83.812670	-11.901850	-48.291440	-28.917920	 12.208170	 51.855920	-106.863200	-2.156275	-2.847965	 65.702700	-76.777530	 59.787320	-5.916034	 16.057150	 1.203951	 18.785240	 53.581970	-15.949860	-8.340399	 37.376710	-2.200396
-0.127269	 1.287875	-0.076431	 8.040137	-1.450781	 179.723800	-172.473800	 21.319340	 8.186614	 11.355240	-36.485050	 9.526596	-9.880036	 68.866880	-1.045713	 1.861402	 35.384520	-2.889663	-179.960300	 7.016571	 19.506420	-2.094078	-25.747870	 12.385590	 6.350077	 60.828350	-10.894250	-2.581007	 42.789130	 3.411769	-2.514102	 2.355476	 10.635680	-4.037088	 8.325047	 3.265342	 3.664189	-9.153894	-3.230763	-98.209780	 2.252306	 93.159500	 43.777350	 48.046000	 2.677582	 50.385310	-2.282738	 0.990069	 20.058070	-17.127590	 4.905744	 4.443861	 39.013760	-2.082783	-7.115925	 51.554260	 6.580962	 6.320946	 27.934810	 0.061754	 5.323171	-9.229199	-1.779600	 6.754365	-5.771461	-0.352136	 75.491650	-0.531756	-42.334980	-39.043670	 2.032625	 27.098210	-20.655180	-0.795138	-0.086327	-33.099720	-55.482100	-42.979640	-5.016042	-2.931799	 0.023453	 12.463400	 21.824320	-4.901939	-8.464335	 9.700517	-0.311067
-0.101263	 1.301625	-0.074521	 11.072950	-2.914114	-163.001500	-173.227400	 25.459430	 22.715810	 8.816730	-29.929980	 9.884061	-5.081394	 66.411290	-5.263833	 1.708702	 33.645880	-2.954805	-178.420000	 12.408280	 22.265830	-2.820807	-33.005890	 6.793282	 0.105811	 51.629140	-0.891454	-4.204678	 54.752790	 4.592746	-5.614721	 4.683781	 17.426680	-7.460732	 11.938730	 7.026930	 4.673419	-12.587380	-8.557885	-101.027100	 3.879698	 93.497890	 53.312550	 42.955370	-12.506740	 45.460880	-2.112283	 0.801120	 27.221500	 0.777726	-0.562535	 3.692507	 55.296020	-2.089278	-8.783735	 61.489400	 9.092609	 6.614579	 34.434890	 0.048574	 3.420852	-11.183960	-3.238887	 5.896654	-8.315330	-10.280990	 95.523460	 25.421280	-91.493620	-33.844470	 23.108760	-3.272691	-48.558750	-1.689406	-0.703529	 34.959150	-17.938530	-2.644540	-4.613278	-14.076550	-0.604922	 11.972510	 2.772211	-0.700895	-8.120084	-6.385335	 0.733622
